<svg width="14" height="14" viewBox="0 0 14 14" fill="none" xmlns="http://www.w3.org/2000/svg">
<path d="M2.91828 11.199C3.06287 10.7892 3.331 10.4344 3.68571 10.1834C4.04043 9.93238 4.46426 9.79759 4.8988 9.79759C5.33333 9.79759 5.75716 9.93238 6.11188 10.1834C6.46659 10.4344 6.73472 10.7892 6.87931 11.199H13.9966V12.5986H6.87931C6.73472 13.0084 6.46659 13.3632 6.11188 13.6142C5.75716 13.8652 5.33333 14 4.8988 14C4.46426 14 4.04043 13.8652 3.68571 13.6142C3.331 13.3632 3.06287 13.0084 2.91828 12.5986H0V11.199H2.91828ZM7.11725 6.30017C7.26184 5.89039 7.52997 5.53556 7.88468 5.28457C8.2394 5.03358 8.66323 4.8988 9.09776 4.8988C9.5323 4.8988 9.95613 5.03358 10.3108 5.28457C10.6656 5.53556 10.9337 5.89039 11.0783 6.30017H13.9966V7.69982H11.0783C10.9337 8.10959 10.6656 8.46443 10.3108 8.71542C9.95613 8.96641 9.5323 9.10119 9.09776 9.10119C8.66323 9.10119 8.2394 8.96641 7.88468 8.71542C7.52997 8.46443 7.26184 8.10959 7.11725 7.69982H0V6.30017H7.11725ZM2.91828 1.40137C3.06287 0.991598 3.331 0.636762 3.68571 0.385773C4.04043 0.134784 4.46426 0 4.8988 0C5.33333 0 5.75716 0.134784 6.11188 0.385773C6.46659 0.636762 6.73472 0.991598 6.87931 1.40137H13.9966V2.80103H6.87931C6.73472 3.2108 6.46659 3.56563 6.11188 3.81662C5.75716 4.06761 5.33333 4.2024 4.8988 4.2024C4.46426 4.2024 4.04043 4.06761 3.68571 3.81662C3.331 3.56563 3.06287 3.2108 2.91828 2.80103H0V1.40137H2.91828ZM4.8988 2.80103C5.0844 2.80103 5.26241 2.72729 5.39365 2.59605C5.52489 2.46481 5.59862 2.2868 5.59862 2.1012C5.59862 1.91559 5.52489 1.73759 5.39365 1.60635C5.26241 1.4751 5.0844 1.40137 4.8988 1.40137C4.71319 1.40137 4.53519 1.4751 4.40394 1.60635C4.2727 1.73759 4.19897 1.91559 4.19897 2.1012C4.19897 2.2868 4.2727 2.46481 4.40394 2.59605C4.53519 2.72729 4.71319 2.80103 4.8988 2.80103ZM9.09776 7.69982C9.28337 7.69982 9.46137 7.62609 9.59262 7.49485C9.72386 7.3636 9.79759 7.1856 9.79759 6.99999C9.79759 6.81439 9.72386 6.63638 9.59262 6.50514C9.46137 6.3739 9.28337 6.30017 9.09776 6.30017C8.91216 6.30017 8.73415 6.3739 8.60291 6.50514C8.47167 6.63638 8.39794 6.81439 8.39794 6.99999C8.39794 7.1856 8.47167 7.3636 8.60291 7.49485C8.73415 7.62609 8.91216 7.69982 9.09776 7.69982ZM4.8988 12.5986C5.0844 12.5986 5.26241 12.5249 5.39365 12.3936C5.52489 12.2624 5.59862 12.0844 5.59862 11.8988C5.59862 11.7132 5.52489 11.5352 5.39365 11.4039C5.26241 11.2727 5.0844 11.199 4.8988 11.199C4.71319 11.199 4.53519 11.2727 4.40394 11.4039C4.2727 11.5352 4.19897 11.7132 4.19897 11.8988C4.19897 12.0844 4.2727 12.2624 4.40394 12.3936C4.53519 12.5249 4.71319 12.5986 4.8988 12.5986Z" fill="white"/>
</svg>
