<svg width="21" height="21" viewBox="0 0 21 21" fill="none" xmlns="http://www.w3.org/2000/svg">
<g clip-path="url(#clip0_25_3650)">
<path d="M17.5008 10.1499V16.4499H16.1008V14.3499H4.90081V16.4499H3.50081V5.24991H4.90081V12.2499H10.5008V7.3499H14.7008C15.4434 7.3499 16.1556 7.6449 16.6807 8.17C17.2058 8.69511 17.5008 9.4073 17.5008 10.1499ZM7.70081 11.5499C7.14385 11.5499 6.60971 11.3287 6.21588 10.9348C5.82206 10.541 5.60081 10.0069 5.60081 9.4499C5.60081 8.89295 5.82206 8.35881 6.21588 7.96498C6.60971 7.57115 7.14385 7.3499 7.70081 7.3499C8.25776 7.3499 8.7919 7.57115 9.18573 7.96498C9.57956 8.35881 9.80081 8.89295 9.80081 9.4499C9.80081 10.0069 9.57956 10.541 9.18573 10.9348C8.7919 11.3287 8.25776 11.5499 7.70081 11.5499Z" fill="#858585"/>
</g>
<defs>
<clipPath id="clip0_25_3650">
<rect width="20.544" height="20.544" fill="white" transform="scale(1.02219)"/>
</clipPath>
</defs>
</svg>
