<svg width="15" height="14" viewBox="0 0 15 14" fill="none" xmlns="http://www.w3.org/2000/svg">
<path d="M11.3744 10.0737L14.4133 13.0248L13.4093 14L10.3711 11.0482C9.24066 11.9285 7.83457 12.4072 6.38572 12.4052C2.8608 12.4052 0 9.62646 0 6.20261C0 2.77877 2.8608 0 6.38572 0C9.91063 0 12.7714 2.77877 12.7714 6.20261C12.7735 7.60992 12.2806 8.97569 11.3744 10.0737ZM9.95108 9.56236C10.8515 8.6629 11.3544 7.45722 11.3524 6.20261C11.3524 3.53687 9.12945 1.37836 6.38572 1.37836C3.64128 1.37836 1.41905 3.53687 1.41905 6.20261C1.41905 8.86767 3.64128 11.0269 6.38572 11.0269C7.67736 11.0288 8.91864 10.5404 9.84465 9.66574L9.95108 9.56236Z" fill="#838383"/>
</svg>
