<svg width="21" height="21" viewBox="0 0 21 21" fill="none" xmlns="http://www.w3.org/2000/svg">
<path d="M9.1871 7.81422C9.29207 7.81422 9.39704 7.77419 9.47711 7.69407L9.69586 7.47532C9.85603 7.31514 9.85603 7.05546 9.69586 6.89528C9.5357 6.7351 9.27599 6.7351 9.11582 6.89528L8.89707 7.11403C8.63793 7.37319 8.82502 7.81422 9.1871 7.81422Z" fill="#858585"/>
<path d="M10.937 8.03296C11.042 8.03296 11.147 7.99293 11.227 7.91281L11.4458 7.69406C11.6059 7.53388 11.6059 7.2742 11.4458 7.11402C11.2856 6.95384 11.0259 6.95384 10.8657 7.11402L10.647 7.33277C10.3878 7.59193 10.5749 8.03296 10.937 8.03296Z" fill="#858585"/>
<path d="M9.1871 9.56425C9.29207 9.56425 9.39704 9.52422 9.47711 9.4441L9.69586 9.22535C9.85603 9.06517 9.85603 8.80549 9.69586 8.64531C9.5357 8.48513 9.27599 8.48513 9.11582 8.64531L8.89707 8.86406C8.63793 9.12322 8.82502 9.56425 9.1871 9.56425Z" fill="#858585"/>
<path d="M3.90997 11.3141H17.0896C17.3162 11.3141 17.4998 11.1305 17.4998 10.904C17.4998 10.6774 17.3162 10.4938 17.0896 10.4938H16.5975V5.36537C16.5975 4.33506 15.7639 3.49988 14.7322 3.49988C14.3013 3.49988 13.881 3.65051 13.5487 3.92313L13.2911 4.13447C12.7147 3.79521 11.9589 3.87271 11.4645 4.36711L10.8458 4.98582C10.6856 5.14599 10.6856 5.40568 10.8458 5.56586L12.3926 7.11267C12.5527 7.27284 12.8125 7.27287 12.9726 7.11267C13.6294 6.45587 13.5886 6.49396 13.5914 6.49396C14.0681 6.01725 14.1572 5.29745 13.8588 4.72982L14.069 4.55734C14.2542 4.40542 14.4881 4.3212 14.7276 4.32021C15.288 4.31518 15.7771 4.77081 15.7771 5.36537V10.4938C15.3569 10.4938 4.32622 10.4938 3.90997 10.4938C3.68345 10.4938 3.49981 10.6775 3.49981 10.904C3.49981 11.1305 3.68345 11.3141 3.90997 11.3141Z" fill="#858585"/>
<path d="M4.61883 12.1345L4.79359 13.0957C5.05365 14.5261 6.11506 15.637 7.46433 16V16.5916C7.46433 16.8181 7.64797 17.0018 7.87449 17.0018C8.101 17.0018 8.28464 16.8181 8.28464 16.5916V16.1239C8.41267 16.1288 12.601 16.1282 12.7143 16.1239V16.5916C12.7143 16.8181 12.898 17.0018 13.1245 17.0018C13.351 17.0018 13.5346 16.8181 13.5346 16.5916V16C14.8839 15.637 15.9453 14.5261 16.2054 13.0957L16.3801 12.1346H4.61883V12.1345Z" fill="#858585"/>
</svg>
