<svg width="28" height="28" viewBox="0 0 28 28" fill="none" xmlns="http://www.w3.org/2000/svg">
<path d="M12.4995 10.9306C12.6195 10.9306 12.7395 10.8848 12.831 10.7932L13.081 10.5432C13.264 10.3602 13.264 10.0634 13.081 9.88034C12.898 9.69728 12.6011 9.69728 12.4181 9.88034L12.1681 10.1303C11.8719 10.4265 12.0857 10.9306 12.4995 10.9306Z" fill="white"/>
<path d="M14.4996 11.1806C14.6195 11.1806 14.7395 11.1348 14.831 11.0432L15.081 10.7932C15.2641 10.6102 15.2641 10.3134 15.081 10.1303C14.898 9.94728 14.6011 9.94728 14.4181 10.1303L14.1681 10.3803C13.8719 10.6765 14.0857 11.1806 14.4996 11.1806Z" fill="white"/>
<path d="M12.4995 12.9306C12.6195 12.9306 12.7395 12.8848 12.831 12.7932L13.081 12.5432C13.264 12.3602 13.264 12.0634 13.081 11.8803C12.898 11.6973 12.6011 11.6973 12.4181 11.8803L12.1681 12.1303C11.8719 12.4265 12.0857 12.9306 12.4995 12.9306Z" fill="white"/>
<path d="M6.46875 14.9306H21.5312C21.7901 14.9306 22 14.7207 22 14.4619C22 14.203 21.7901 13.9931 21.5312 13.9931H20.9688V8.13206C20.9688 6.95456 20.0161 6.00006 18.837 6.00006C18.3446 6.00006 17.8642 6.17222 17.4844 6.48378L17.19 6.72531C16.5313 6.33759 15.6675 6.42615 15.1025 6.99119L14.3954 7.69828C14.2123 7.88134 14.2123 8.17812 14.3954 8.36119L16.1632 10.129C16.3462 10.312 16.643 10.3121 16.8261 10.129C17.5767 9.37834 17.5301 9.42187 17.5332 9.42187C18.078 8.87706 18.1799 8.05444 17.8388 7.40572L18.0791 7.20859C18.2907 7.03497 18.5581 6.93872 18.8318 6.93759C19.4723 6.93184 20.0312 7.45256 20.0312 8.13206V13.9932C19.551 13.9932 6.94447 13.9932 6.46875 13.9932C6.20987 13.9932 6 14.203 6 14.4619C6 14.7208 6.20987 14.9306 6.46875 14.9306Z" fill="white"/>
<path d="M7.2793 15.8682L7.47902 16.9666C7.77623 18.6013 8.98927 19.8709 10.5313 20.2859V20.9619C10.5313 21.2208 10.7412 21.4307 11 21.4307C11.2589 21.4307 11.4688 21.2208 11.4688 20.9619V20.4274C11.6151 20.433 16.4018 20.4323 16.5313 20.4274V20.9619C16.5313 21.2208 16.7412 21.4307 17 21.4307C17.2589 21.4307 17.4688 21.2208 17.4688 20.9619V20.2859C19.0108 19.8709 20.2239 18.6013 20.5211 16.9666L20.7208 15.8682H7.2793V15.8682Z" fill="white"/>
<rect width="28" height="28" rx="5" fill="white" fill-opacity="0.2"/>
</svg>
