<svg width="15" height="20" viewBox="0 0 15 20" fill="none" xmlns="http://www.w3.org/2000/svg">
<path d="M12.3592 8.30198C12.3592 6.92309 11.8204 5.60067 10.8613 4.62565C9.90224 3.65062 8.60143 3.10286 7.24507 3.10286C5.88871 3.10286 4.5879 3.65062 3.62881 4.62565C2.66972 5.60067 2.1309 6.92309 2.1309 8.30198V15.2341H12.3592V8.30198ZM14.064 15.8121L14.4049 16.274C14.4524 16.3383 14.4813 16.4149 14.4884 16.495C14.4955 16.5751 14.4805 16.6557 14.4451 16.7277C14.4098 16.7996 14.3553 16.8602 14.288 16.9025C14.2207 16.9448 14.1431 16.9672 14.064 16.9672H0.426181C0.347034 16.9672 0.269451 16.9448 0.202124 16.9025C0.134798 16.8602 0.0803888 16.7996 0.0449932 16.7277C0.00959769 16.6557 -0.00538556 16.5751 0.00172227 16.495C0.0088301 16.4149 0.0377481 16.3383 0.0852362 16.274L0.426181 15.8121V8.30198C0.426181 6.46346 1.1446 4.70024 2.42339 3.4002C3.70218 2.10017 5.43659 1.36982 7.24507 1.36982C9.05355 1.36982 10.788 2.10017 12.0668 3.4002C13.3455 4.70024 14.064 6.46346 14.064 8.30198V15.8121ZM5.11417 17.8337H9.37597C9.37597 18.4082 9.15147 18.9592 8.75185 19.3655C8.35222 19.7718 7.81022 20 7.24507 20C6.67992 20 6.13792 19.7718 5.73829 19.3655C5.33867 18.9592 5.11417 18.4082 5.11417 17.8337Z" fill="white"/>
<circle cx="11.8723" cy="3.10503" r="3.10503" fill="#FA0E0E"/>
</svg>
