<svg width="17" height="16" viewBox="0 0 17 16" fill="none" xmlns="http://www.w3.org/2000/svg">
<path d="M12.9993 11.5128L16.4723 14.8855L15.3249 16L11.8527 12.6266C10.5608 13.6325 8.9538 14.1797 7.29797 14.1774C3.26949 14.1774 0 11.0017 0 7.08871C0 3.17574 3.26949 0 7.29797 0C11.3264 0 14.5959 3.17574 14.5959 7.08871C14.5983 8.69706 14.035 10.2579 12.9993 11.5128ZM11.3727 10.9284C12.4018 9.90047 12.9765 8.52254 12.9742 7.08871C12.9742 4.04214 10.4337 1.57527 7.29797 1.57527C4.16146 1.57527 1.62177 4.04214 1.62177 7.08871C1.62177 10.1345 4.16146 12.6021 7.29797 12.6021C8.77413 12.6044 10.1927 12.0462 11.251 11.0466L11.3727 10.9284Z" fill="#838383"/>
</svg>
