<svg width="14" height="11" viewBox="0 0 14 11" fill="none" xmlns="http://www.w3.org/2000/svg">
<path d="M13.75 4.81252V11H12.375V8.93753H1.37501V11H0V0H1.37501V6.87502H6.87502V2.06251H11C11.7294 2.06251 12.4289 2.35224 12.9446 2.86797C13.4603 3.38369 13.75 4.08317 13.75 4.81252ZM4.12502 6.18752C3.578 6.18752 3.0534 5.97022 2.6666 5.58343C2.27981 5.19663 2.06251 4.67203 2.06251 4.12502C2.06251 3.578 2.27981 3.0534 2.6666 2.6666C3.0534 2.27981 3.578 2.06251 4.12502 2.06251C4.67203 2.06251 5.19663 2.27981 5.58343 2.6666C5.97022 3.0534 6.18752 3.578 6.18752 4.12502C6.18752 4.67203 5.97022 5.19663 5.58343 5.58343C5.19663 5.97022 4.67203 6.18752 4.12502 6.18752Z" fill="#858585"/>
</svg>
