<svg width="14" height="14" viewBox="0 0 14 14" fill="none" xmlns="http://www.w3.org/2000/svg">
<path d="M7.00123 12.2497L3.90768 9.17434C3.29584 8.5661 2.87917 7.79115 2.71037 6.9475C2.54157 6.10384 2.62821 5.22937 2.95934 4.43467C3.29047 3.63997 3.85121 2.96073 4.57066 2.48284C5.29011 2.00495 6.13595 1.74988 7.00123 1.74988C7.8665 1.74988 8.71235 2.00495 9.4318 2.48284C10.1512 2.96073 10.712 3.63997 11.0431 4.43467C11.3742 5.22937 11.4609 6.10384 11.2921 6.9475C11.1233 7.79115 10.7066 8.5661 10.0948 9.17434L7.00123 12.2497ZM9.40743 8.49104C9.88328 8.01795 10.2073 7.41521 10.3386 6.75904C10.4699 6.10288 10.4024 5.42275 10.1449 4.80467C9.88734 4.18658 9.4512 3.6583 8.89164 3.28662C8.33207 2.91494 7.67421 2.71656 7.00123 2.71656C6.32825 2.71656 5.67038 2.91494 5.11082 3.28662C4.55125 3.6583 4.11512 4.18658 3.85757 4.80467C3.60001 5.42275 3.53261 6.10288 3.66387 6.75904C3.79514 7.41521 4.11918 8.01795 4.59502 8.49104L7.00123 10.8831L9.40743 8.49104ZM7.00123 7.06548C6.74338 7.06548 6.4961 6.96365 6.31378 6.7824C6.13145 6.60115 6.02902 6.35533 6.02902 6.099C6.02902 5.84267 6.13145 5.59684 6.31378 5.41559C6.4961 5.23434 6.74338 5.13252 7.00123 5.13252C7.25907 5.13252 7.50636 5.23434 7.68868 5.41559C7.871 5.59684 7.97343 5.84267 7.97343 6.099C7.97343 6.35533 7.871 6.60115 7.68868 6.7824C7.50636 6.96365 7.25907 7.06548 7.00123 7.06548Z" fill="white"/>
</svg>
