<svg width="19" height="22" viewBox="0 0 19 22" fill="none" xmlns="http://www.w3.org/2000/svg">
<path d="M14.8372 8.18605C14.8372 6.55774 14.1904 4.99613 13.039 3.84474C11.8876 2.69335 10.326 2.04651 8.69767 2.04651C7.06937 2.04651 5.50775 2.69335 4.35637 3.84474C3.20498 4.99613 2.55814 6.55774 2.55814 8.18605V16.3721H14.8372V8.18605ZM16.8837 17.0546L17.293 17.6C17.35 17.676 17.3847 17.7664 17.3933 17.861C17.4018 17.9557 17.3838 18.0508 17.3413 18.1358C17.2988 18.2208 17.2335 18.2922 17.1527 18.3422C17.0719 18.3921 16.9787 18.4186 16.8837 18.4186H0.511628C0.416613 18.4186 0.323474 18.3921 0.242649 18.3422C0.161825 18.2922 0.0965064 18.2208 0.0540142 18.1358C0.011522 18.0508 -0.00646534 17.9557 0.00206757 17.861C0.0106005 17.7664 0.0453165 17.676 0.102326 17.6L0.511628 17.0546V8.18605C0.511628 6.01497 1.37408 3.93282 2.90927 2.39764C4.44445 0.862456 6.5266 0 8.69767 0C10.8687 0 12.9509 0.862456 14.4861 2.39764C16.0213 3.93282 16.8837 6.01497 16.8837 8.18605V17.0546ZM6.13953 19.4419H11.2558C11.2558 20.1203 10.9863 20.771 10.5066 21.2507C10.0268 21.7305 9.37614 22 8.69767 22C8.01921 22 7.36854 21.7305 6.8888 21.2507C6.40905 20.771 6.13953 20.1203 6.13953 19.4419Z" fill="black"/>
<circle cx="14.8372" cy="4.09302" r="4.09302" fill="#FA0E0E"/>
</svg>
